<?xml version="1.0" encoding="UTF-8" standalone="no"?>
<svg xmlns="http://www.w3.org/2000/svg" xmlns:xlink="http://www.w3.org/1999/xlink" version="1.1" width="700" height="700" viewBox="930 305.5 700 700"><g id="document" fill="none" fill-rule="nonzero" font-family="none" font-weight="none" font-size="none"><g id="stage"><g id="layer1-1"><g id="Group-1"><path d="M1280,348.79897c103.19588,0 198.45361,19.48454 280,55.56701v198.45361c0,144.3299 -95.25773,267.01031 -280,359.38144c-184.74227,-92.37113 -280,-215.05155 -280,-359.38144v-198.45361c81.54639,-36.08247 176.80412,-55.56701 280,-55.56701z" id="Path-1" fill="#0f2747" stroke="none" stroke-width="1"/><path d="M1280,371.89175c93.81443,0 177.52577,17.31959 251.13402,49.07216v178.96907c0,125.56701 -80.10309,232.37113 -251.13402,318.96907c-171.03093,-86.59794 -251.13402,-193.40206 -251.13402,-318.96907v-178.96907c73.60825,-31.75258 157.31959,-49.07216 251.13402,-49.07216z" id="Path-1-1" fill="none" stroke="#fffefe" stroke-width="26"/><g id="Group-1-1" fill="#fffefe" stroke="none" stroke-width="1"><path d="M1193.40206,449.14948c0,-7.21649 5.7732,-12.98969 12.98969,-12.98969h28.86598v23.09278h28.86598v-23.09278h31.75258v23.09278h28.86598v-23.09278h28.86598c7.21649,0 12.98969,5.7732 12.98969,12.98969l-2.8866,53.40206c0,7.21649 -5.7732,12.98969 -12.98969,12.98969h-141.4433c-7.21649,0 -12.98969,-5.7732 -12.98969,-12.98969z" id="Path-1-2"/><path d="M1213.60825,541.08763c0,-7.21649 5.7732,-12.98969 12.98969,-12.98969h106.80412c7.21649,0 12.98969,5.7732 12.98969,12.98969l-7.21649,15.87629h-118.35052z" id="Path-1-3"/><path d="M1236.70103,569.95361h86.59794l25.97938,163.09278h-138.5567z" id="Path-1-4"/><path d="M1189.07216,764.46907c0,-10.10309 8.65979,-18.76289 18.76289,-18.76289h144.3299c10.10309,0 18.76289,8.65979 18.76289,18.76289l12.98969,33.19588c0,8.65979 -7.21649,15.87629 -15.87629,15.87629h-176.08247c-8.65979,0 -15.87629,-7.21649 -15.87629,-15.87629z" id="Path-1-5"/></g></g></g></g></g></svg>